# xmcd CD database file
#
# Track frame offsets:
#	150
#	23662
#	25455
#	46887
#	50025
#	73070
#	94810
#	101807
#	104755
#
# Disc length: 1662 seconds
#
# Revision: 2
# Processed by: cddbd v1.4PL0 Copyright (c) Steve Scherf et al.
# Submitted via: CDex 1.50
#
DISCID=7e067c09
DTITLE=Twin Hype - Double Barrel
DYEAR=1991
DGENRE=Rap
TTITLE0=Nothing Could Save Ya
TTITLE1=Another Album?
TTITLE2=Wrong Place, Wrong Time
TTITLE3=The Counterfeit Incident
TTITLE4=Call Me
TTITLE5=Lyrical Rundown
TTITLE6=Something Like Venom
TTITLE7=Rap (It Ain't Illegal Yet)
TTITLE8=Double Barrel
EXTD=YEAR: 1991
EXTT0=
EXTT1=
EXTT2=
EXTT3=
EXTT4=
EXTT5=
EXTT6=
EXTT7=
EXTT8=
PLAYORDER=
